<mxfile host="65bd71144e">
    <diagram id="Qmy5BeUOTqoZVELuFjo3" name="Page-1">
        <mxGraphModel dx="1040" dy="980" grid="1" gridSize="10" guides="1" tooltips="1" connect="1" arrows="1" fold="1" page="1" pageScale="1" pageWidth="827" pageHeight="1169" math="0" shadow="0">
            <root>
                <mxCell id="0"/>
                <mxCell id="1" parent="0"/>
                <mxCell id="3" value="Github Action&lt;br&gt;(Terraform)" style="ellipse;shape=cloud;whiteSpace=wrap;html=1;" vertex="1" parent="1">
                    <mxGeometry x="354" y="279" width="120" height="80" as="geometry"/>
                </mxCell>
                <mxCell id="4" value="Genesys Cloud (HOME org)" style="ellipse;shape=cloud;whiteSpace=wrap;html=1;fillColor=#fa6800;fontColor=#000000;strokeColor=#C73500;" vertex="1" parent="1">
                    <mxGeometry x="70" y="279" width="120" height="80" as="geometry"/>
                </mxCell>
                <mxCell id="5" value="Genesys Cloud (TARGET #1 org)" style="ellipse;shape=cloud;whiteSpace=wrap;html=1;fillColor=#fa6800;fontColor=#000000;strokeColor=#C73500;" vertex="1" parent="1">
                    <mxGeometry x="650" y="279" width="120" height="80" as="geometry"/>
                </mxCell>
                <mxCell id="6" value="Genesys Cloud (TARGET #2 org)" style="ellipse;shape=cloud;whiteSpace=wrap;html=1;fillColor=#fa6800;fontColor=#000000;strokeColor=#C73500;" vertex="1" parent="1">
                    <mxGeometry x="650" y="389" width="120" height="80" as="geometry"/>
                </mxCell>
                <mxCell id="7" value="..." style="ellipse;shape=cloud;whiteSpace=wrap;html=1;fillColor=#fa6800;fontColor=#000000;strokeColor=#C73500;" vertex="1" parent="1">
                    <mxGeometry x="650" y="499" width="120" height="80" as="geometry"/>
                </mxCell>
                <mxCell id="8" value="Read&lt;br&gt;configuration" style="endArrow=classic;html=1;" edge="1" parent="1" source="4" target="3">
                    <mxGeometry width="50" height="50" relative="1" as="geometry">
                        <mxPoint x="140" y="509" as="sourcePoint"/>
                        <mxPoint x="190" y="459" as="targetPoint"/>
                    </mxGeometry>
                </mxCell>
                <mxCell id="9" value="Update&lt;br&gt;configuration" style="endArrow=classic;html=1;" edge="1" parent="1" source="3" target="5">
                    <mxGeometry width="50" height="50" relative="1" as="geometry">
                        <mxPoint x="400" y="479" as="sourcePoint"/>
                        <mxPoint x="450" y="429" as="targetPoint"/>
                    </mxGeometry>
                </mxCell>
                <mxCell id="10" value="Update&lt;br&gt;configuration" style="endArrow=classic;html=1;" edge="1" parent="1" source="3" target="6">
                    <mxGeometry width="50" height="50" relative="1" as="geometry">
                        <mxPoint x="406.65240816914775" y="367.29163562663643" as="sourcePoint"/>
                        <mxPoint x="341.4004437169822" y="510.719023822639" as="targetPoint"/>
                    </mxGeometry>
                </mxCell>
                <mxCell id="11" value="Update&lt;br&gt;configuration" style="endArrow=classic;html=1;" edge="1" parent="1" source="3" target="7">
                    <mxGeometry width="50" height="50" relative="1" as="geometry">
                        <mxPoint x="416.65240816914775" y="377.29163562663643" as="sourcePoint"/>
                        <mxPoint x="351.4004437169822" y="520.719023822639" as="targetPoint"/>
                    </mxGeometry>
                </mxCell>
                <mxCell id="12" value="Schedule" style="shape=process;whiteSpace=wrap;html=1;backgroundOutline=1;" vertex="1" parent="1">
                    <mxGeometry x="220" y="180" width="120" height="60" as="geometry"/>
                </mxCell>
                <mxCell id="13" value="Frontend" style="ellipse;shape=cloud;whiteSpace=wrap;html=1;" vertex="1" parent="1">
                    <mxGeometry x="354" y="60" width="120" height="80" as="geometry"/>
                </mxCell>
                <mxCell id="14" value="" style="endArrow=classic;html=1;" edge="1" parent="1" source="12" target="3">
                    <mxGeometry width="50" height="50" relative="1" as="geometry">
                        <mxPoint x="190" y="390" as="sourcePoint"/>
                        <mxPoint x="240" y="340" as="targetPoint"/>
                    </mxGeometry>
                </mxCell>
                <mxCell id="15" value="" style="endArrow=classic;html=1;" edge="1" parent="1" source="13" target="3">
                    <mxGeometry width="50" height="50" relative="1" as="geometry">
                        <mxPoint x="362.909090909091" y="140" as="sourcePoint"/>
                        <mxPoint x="396.7790175598093" y="184.35347537594066" as="targetPoint"/>
                    </mxGeometry>
                </mxCell>
                <mxCell id="16" value="Manual Commit/Push" style="edgeLabel;html=1;align=center;verticalAlign=middle;resizable=0;points=[];" vertex="1" connectable="0" parent="15">
                    <mxGeometry x="0.0174" y="3" relative="1" as="geometry">
                        <mxPoint as="offset"/>
                    </mxGeometry>
                </mxCell>
                <mxCell id="17" value="Github Secrets" style="ellipse;shape=cloud;whiteSpace=wrap;html=1;" vertex="1" parent="1">
                    <mxGeometry x="354" y="469" width="120" height="80" as="geometry"/>
                </mxCell>
                <mxCell id="18" value="" style="endArrow=classic;startArrow=classic;html=1;" edge="1" parent="1" source="17" target="3">
                    <mxGeometry width="50" height="50" relative="1" as="geometry">
                        <mxPoint x="340" y="450" as="sourcePoint"/>
                        <mxPoint x="390" y="400" as="targetPoint"/>
                    </mxGeometry>
                </mxCell>
                <mxCell id="21" value="Read/Store&lt;br&gt;Genesys Cloud&lt;br&gt;Credentials" style="edgeLabel;html=1;align=center;verticalAlign=middle;resizable=0;points=[];" vertex="1" connectable="0" parent="18">
                    <mxGeometry x="-0.169" y="-1" relative="1" as="geometry">
                        <mxPoint y="1" as="offset"/>
                    </mxGeometry>
                </mxCell>
                <mxCell id="19" value="Github&lt;br&gt;Repository" style="ellipse;shape=cloud;whiteSpace=wrap;html=1;" vertex="1" parent="1">
                    <mxGeometry x="170" y="469" width="120" height="80" as="geometry"/>
                </mxCell>
                <mxCell id="20" value="Save State" style="endArrow=classic;html=1;" edge="1" parent="1" source="3" target="19">
                    <mxGeometry width="50" height="50" relative="1" as="geometry">
                        <mxPoint x="250" y="420" as="sourcePoint"/>
                        <mxPoint x="300" y="370" as="targetPoint"/>
                    </mxGeometry>
                </mxCell>
            </root>
        </mxGraphModel>
    </diagram>
</mxfile>